<svg width="155" height="68" viewBox="0 0 155 68" fill="none" xmlns="http://www.w3.org/2000/svg">
<g clip-path="url(#clip0_109_44)">
<g clip-path="url(#clip1_109_44)">
<path d="M62.3709 19.3233C70.0209 13.5433 67.2065 4.30667 58.9142 1.53C50.1687 -0.982222 45.692 1.15222 44.9553 7.82C39.4776 5.62889 33.6031 5.21333 27.7476 8.02778C23.3653 5.42111 20.6076 5.47778 16.6787 7.19667C14.5253 4.96778 12.1642 1.94556 8.36756 4.40111C4.5709 6.85667 6.23312 12.7878 7.85756 15.1489C3.2109 21.6844 -0.793547 26.9922 0.472009 30.6378C6.49756 40.7056 10.1998 48.8089 10.9742 53.3611C9.76534 53.3611 8.93423 53.38 8.00868 52.87C8.8209 57.46 14.4687 67.3956 22.3265 67.5089C33.3765 67.5089 33.1498 64.4678 37.7209 64.3356C39.2887 64.3356 40.6676 65.6956 40.9509 67.49C57.0442 61.7856 77.3498 44.9744 62.7298 22.6289C64.7698 21.5333 65.2987 21.1367 66.3187 19.1344C64.8453 19.55 63.7498 19.3611 62.3709 19.3233Z" fill="#28282E"/>
<path d="M27.4077 57.7245C30.6377 54.2489 31.5254 52.3222 32.961 45.6733C35.3599 49.2245 36.2288 52.0011 36.191 55.3633C33.3388 58.0456 33.1121 60.7089 34.0188 64.1278C24.7632 67.3578 18.9265 66.3567 15.1299 62.0122C20.7965 62.0311 27.3132 63.9389 27.4077 57.7245Z" fill="#C9905E"/>
<path d="M24.4421 66.5078C20.3621 66.5078 17.151 65.1478 14.7144 62.3333L13.9966 61.5211H15.0921C16.2255 61.5211 17.3777 61.5967 18.5299 61.6533C19.6255 61.7289 20.6644 61.7667 21.6088 61.7667C24.8766 61.7667 26.8788 61.0867 26.9355 57.6867V57.4789L27.0488 57.3467C30.2032 53.9089 31.0721 52.0578 32.4888 45.5222L32.7155 44.4267L33.3388 45.3522C35.7188 48.8844 36.701 51.7556 36.6255 55.3256V55.5522L36.4932 55.6844C33.6977 58.3289 33.641 60.8978 34.4532 63.92L34.5666 64.3544L34.1321 64.4867C30.4299 65.8844 27.2566 66.5078 24.4421 66.5078ZM16.2632 62.5411C18.4166 64.5622 21.0988 65.5633 24.461 65.5633C27.011 65.5633 30.0144 64.9778 33.3955 63.8256C32.5266 60.1233 33.1877 57.5922 35.6621 55.1744C35.681 52.2467 34.9444 49.7911 33.1688 46.9389C31.8655 52.6433 30.8644 54.6833 27.861 57.9511C27.7288 62.22 24.6121 62.8244 21.571 62.8244C20.5699 62.8244 19.5121 62.7489 18.3977 62.6922C17.6988 62.6167 16.981 62.5789 16.2632 62.5411Z" fill="#28282E"/>
<path d="M15.0355 61.5778C12.2966 59.6322 11.1444 57.6489 10.1055 55.1178C13.8455 57.46 15.621 55.8356 17.2266 59.1033C17.2266 59.1033 19.5877 59.3111 20.9099 59.3111C22.4021 56.4589 24.0832 57.9133 25.3677 54.4378C27.9177 59.7456 24.6877 61.5589 23.8755 61.5589L15.0355 61.5778Z" fill="white"/>
<path d="M23.8943 62.0878H14.8843L14.771 61.9933C11.9943 60.0289 10.7477 58.0078 9.67101 55.3067L9.08545 53.89L10.3699 54.6833C11.8621 55.6089 12.9766 55.8733 13.9966 56.1189C15.3943 56.4589 16.5466 56.7422 17.5477 58.6311C18.1521 58.6689 19.6255 58.7633 20.6832 58.82C21.401 57.5733 22.1755 57.1578 22.8743 56.7611C23.6677 56.3456 24.3477 55.9678 24.971 54.2867L25.3677 53.21L25.8588 54.23C27.351 57.4033 26.9166 59.3867 26.2555 60.4633C25.4999 61.6722 24.4232 62.0878 23.8943 62.0878ZM15.2055 61.0867H23.9321C24.1588 61.0867 24.9143 60.7656 25.4055 59.9533C25.8777 59.1789 26.1988 57.8567 25.4055 55.6844C24.7443 56.8744 24.0077 57.3089 23.3277 57.6867C22.6477 58.0644 22.0243 58.4044 21.3821 59.5944L21.2499 59.8778H20.9666C19.6443 59.8778 17.3399 59.67 17.2455 59.67L16.981 59.6511L16.8677 59.4056C16.0177 57.6867 15.2054 57.4978 13.8266 57.1767C13.1088 56.9878 12.2399 56.78 11.1821 56.2889C12.0321 58.14 13.1466 59.6322 15.2055 61.0867Z" fill="#28282E"/>
<path d="M31.7523 62.4089C30.0712 63.0322 27.9746 63.9011 24.9146 62.4089C26.2934 62.0878 27.8801 60.7089 27.8801 57.9322C30.0523 56.0811 32.7912 50.0178 33.2068 46.9767C33.4712 47.4678 35.9834 50.2256 34.4912 54.8156C32.9234 55.9678 31.7523 58.14 31.7523 62.4089Z" fill="#E9AD77"/>
<path d="M12.2965 26.9544C10.9743 24.0456 8.93426 25.8589 7.57426 21.1933C6.59204 22.4589 5.32648 25.5378 7.00759 28.5222C6.02537 28.4467 5.06204 28.9 5.00537 30.6756C5.1187 33.15 5.57204 33.9056 6.91315 36.0778C7.81982 32.5267 8.8587 32.64 11.9754 30.6756C12.4287 29.5989 12.8443 28.4656 12.2965 26.9544Z" fill="#E8AD76"/>
<path d="M7.12098 37.2867L6.51654 36.3044C5.15654 34.0944 4.64654 33.2633 4.5332 30.6378V30.6189C4.62765 28.8244 5.49654 28.2389 6.28987 28.0689C4.98654 25.0278 6.28987 22.0811 7.23431 20.8533L7.81987 20.1167L8.08431 21.0233C8.80209 23.4978 9.67098 23.97 10.5965 24.48C11.3143 24.8767 12.1454 25.3111 12.7876 26.7089L12.8065 26.7278C13.4299 28.4467 12.901 29.7689 12.5043 30.8267L12.4665 30.9589L12.3343 31.0344C11.7299 31.4311 11.201 31.7333 10.7288 32.0167C8.7832 33.1311 8.15987 33.5089 7.46098 36.1722L7.12098 37.2867ZM5.51543 30.6378C5.60987 32.64 5.91209 33.3956 6.79987 34.8689C7.55543 32.7156 8.48098 32.1489 10.1999 31.1667C10.6343 30.9211 11.0876 30.6567 11.6543 30.2789C12.051 29.2778 12.3721 28.3333 11.9188 27.0678C11.4088 25.9911 10.8232 25.67 10.1432 25.3111C9.27431 24.8389 8.2732 24.2911 7.47987 22.2322C6.76209 23.63 6.17654 25.9344 7.47987 28.2011L7.95209 28.9944L7.06431 28.9567C7.02654 28.9567 6.96987 28.9567 6.93209 28.9567C6.27098 28.9756 5.57209 29.1833 5.51543 30.6378Z" fill="#28282E"/>
<path d="M6.271 29.1456C9.501 31.96 10.6343 29.3911 10.6343 27.6911C8.68877 27.6911 7.13988 25.67 7.13988 23.2144C5.85544 26.2744 7.57433 28.5222 7.93322 29.1267C7.10211 29.0511 6.70544 28.9 6.271 29.1456Z" fill="#C88F5D"/>
<path d="M19.4554 36.8522C19.5877 35.9078 19.9843 35.0389 20.5699 34.6989C20.7588 37.5322 21.1743 38.6278 22.931 40.9889C23.8377 36.7011 23.781 37.4378 25.991 33.2444C20.381 31.2422 11.9377 28.4844 7.34766 35.3789C8.23543 38.6844 8.70766 38.8356 11.031 40.9511C9.97321 36.2856 10.4454 35.5867 10.9177 34.7556C11.6165 35.36 11.5221 36.2478 11.3143 36.8711C12.1077 36.1722 12.9577 35.3222 12.9954 34.3967C13.3921 34.2644 15.7343 33.6978 18.2654 34.68C18.2843 35.4733 19.1532 36.72 19.4554 36.8522Z" fill="white"/>
<path d="M11.8433 42.3489L10.71 41.3289C10.5022 41.1211 10.2755 40.9322 10.0866 40.7433C8.23551 39.1 7.70663 38.6089 6.85663 35.4922L6.81885 35.2656L6.93218 35.0578C8.97218 31.9978 11.9755 30.4489 15.9233 30.4489C19.3988 30.4489 23.0255 31.6389 26.1422 32.7156L26.6711 32.9233L26.4066 33.4333C25.9722 34.2456 25.6322 34.8689 25.33 35.3789C24.1588 37.5133 24.1022 37.6267 23.3655 41.0456L23.1577 42.1222L22.5344 41.2344C20.9855 39.1189 20.4377 37.9856 20.1922 35.9267C20.0788 36.21 20.0033 36.5311 19.9277 36.9089L19.8333 37.5133L19.2666 37.2867C18.7566 37.0789 18.0011 35.9267 17.8122 35.02C16.9622 34.7367 16.0366 34.6044 15.13 34.6044C14.3555 34.6044 13.7511 34.6989 13.43 34.7933C13.2222 35.7944 12.3533 36.6256 11.6166 37.2678L10.9366 37.8533C11.0311 38.59 11.2011 39.5722 11.5033 40.8756L11.8433 42.3489ZM20.9855 33.8678L21.0233 34.6611C21.1555 37.0033 21.4955 38.0611 22.6666 39.8178C23.2333 37.2867 23.4411 36.89 24.5177 34.9444C24.7255 34.5478 24.99 34.1133 25.2922 33.5278C22.3644 32.5078 19.0588 31.4878 15.9233 31.4878C12.3722 31.4878 9.70885 32.81 7.83885 35.4733C8.49996 37.8533 8.89663 38.3444 10.2188 39.61C9.55774 36.1344 9.99218 35.3789 10.4266 34.6044L10.7288 34.0189L11.1633 34.3967C11.5411 34.7178 11.7677 35.1333 11.8433 35.6056C12.1455 35.2089 12.4288 34.7933 12.4477 34.3589L12.4666 34.0378L12.75 33.9244C13.0522 33.8111 13.9588 33.6033 15.0544 33.6033C16.1877 33.6033 17.3022 33.8111 18.36 34.2078L18.6622 34.3211V34.6611C18.6622 34.9822 18.87 35.4544 19.0966 35.8133C19.3233 35.0956 19.72 34.5478 20.2111 34.2644L20.9855 33.8678ZM10.9933 35.8511C10.9555 36.0589 10.9177 36.2856 10.8988 36.6256C10.9744 36.4178 11.0311 36.1156 10.9933 35.8511Z" fill="#28282E"/>
<path d="M20.8722 30.9211C18.9267 30.9211 12.58 28.9756 17.6044 25.4433C18.7756 24.6311 23.8378 21.4767 20.6267 16.0556C33.7922 22.2322 34.1133 29.0511 32.5267 37.4756C28.7489 33.1122 25.7078 31.62 20.8722 30.9211Z" fill="#E8AD75"/>
<path d="M32.8101 38.59L32.149 37.8533C28.6168 33.7544 25.7457 32.1489 20.8157 31.45C19.4557 31.4311 15.9046 30.5622 15.3001 28.5978C14.979 27.4644 15.6213 26.2744 17.3024 25.1033L17.4724 24.99C18.1524 24.5178 19.569 23.5544 20.419 22.0811C21.4768 20.3433 21.3824 18.4356 20.1924 16.3956L19.3801 15.0356L20.7968 15.7156C27.0868 18.6433 30.8079 21.8356 32.5268 25.8211C34.1701 29.6178 33.7168 33.7733 32.999 37.7022L32.8101 38.59ZM21.7035 17.17C22.969 20.3433 21.7224 23.2333 18.0579 25.8022L17.8879 25.9156C17.0001 26.5389 15.999 27.4456 16.2446 28.2956C16.6413 29.5422 19.5124 30.4489 20.8724 30.4489H20.9479C23.5924 30.8267 25.5757 31.4311 27.3324 32.3944C28.9757 33.32 30.5813 34.6044 32.2435 36.4556C32.9046 32.5267 33.0179 29.24 31.6768 26.1611C30.1846 22.6856 26.9924 19.8144 21.7035 17.17Z" fill="#28282E"/>
<path d="M50.2254 43.9733C52.7754 41.9144 53.8521 40.4978 55.3632 37.7967C54.4754 42.7644 53.0776 44.8044 49.7532 47.9022C57.0821 48.0911 69.8699 34.2833 61.2943 22.3833C62.6732 22.0622 64.2599 21.0233 65.1287 20.1167C62.881 20.0789 62.1821 19.9089 60.7465 19.38C66.7532 15.9422 67.5654 10.3511 60.2176 5.83667C62.4276 5.87444 63.8443 6.64889 64.9776 7.53667C62.7299 1.75667 49.2432 -1.60556 47.9588 8.42444C49.0921 9.78444 50.3199 10.8989 51.0188 12.58C43.0099 5.30778 26.3688 4.40111 22.251 16.32C25.5565 18.5489 26.3688 19.0589 27.2188 20.1922C28.3332 21.0989 29.7121 22.1378 30.6754 23.6678C33.4332 25.1222 34.9632 27.2944 34.9632 31.6389C48.2421 33.9622 49.8099 40.7056 50.2443 44.1433" fill="#AA7342"/>
<path d="M49.9043 48.1478C49.8665 48.1478 49.8098 48.1478 49.772 48.1478L49.1676 48.1289L49.602 47.7133C52.5676 44.8989 53.9654 43.0478 54.8531 39.1567C53.7198 40.97 52.6054 42.3111 50.5087 44.0489L50.5276 44.2756L50.1498 44.3133L50.0365 44.3322L50.0176 44.1056L49.8854 43.8978L49.9798 43.8033C48.7143 35.1522 40.7998 32.7911 34.9254 31.7522L34.7365 31.7333V31.5256C34.7365 27.5967 33.5276 25.33 30.562 23.7811L30.5243 23.7622L30.5054 23.7244C29.6365 22.3267 28.4276 21.3633 27.3509 20.5133L27.0676 20.2678C26.2931 19.2478 25.5754 18.7567 22.8931 16.9433L22.0054 16.3389L22.0809 16.15C23.9887 10.5778 28.3143 8.38667 31.6009 7.49889C37.6454 5.89333 45.2576 7.57444 50.2443 11.5222C49.772 10.8044 49.2432 10.1811 48.6576 9.50111C48.3743 9.18 48.072 8.85889 47.8076 8.5L47.732 8.42444L47.7509 8.33C48.242 4.57111 50.452 2.24778 54.0031 1.79444C58.5365 1.20889 63.8631 3.89111 65.242 7.40444L65.5443 8.21667L64.8454 7.70667C63.9765 7.02667 62.862 6.34666 61.1809 6.10111C64.2031 8.16 65.7709 10.5211 65.752 12.9389C65.7332 15.2811 64.1654 17.51 61.3698 19.2478C62.4654 19.6256 63.2209 19.7578 65.2043 19.7956H65.7709L65.3743 20.1922C64.5998 21.0044 63.1832 22.0056 61.7854 22.44C65.072 27.2 65.3743 32.7722 62.6543 38.1933C59.8209 43.7467 54.1543 48.1478 49.9043 48.1478ZM55.8543 36.4556L55.6276 37.8533C54.7587 42.67 53.3609 44.8044 50.4143 47.6378C54.4565 47.3167 59.5754 43.1611 62.1443 38.0611C63.712 34.9444 65.6387 28.8244 61.0865 22.5533L60.8787 22.2511L61.2565 22.1756C62.4276 21.8922 63.7309 21.0989 64.5432 20.3622C62.7487 20.3244 62.0309 20.1167 60.6709 19.6256L60.1609 19.4367L60.6331 19.1533C63.5798 17.4533 65.2043 15.2811 65.2609 12.9767C65.2987 10.5211 63.5043 8.10333 60.1231 6.02555L59.3487 5.55333L60.2365 5.57222C62.0876 5.59111 63.3909 6.15778 64.3543 6.76222C62.5787 3.85333 58.0076 1.79444 54.0598 2.30444C52.152 2.55 48.8465 3.64555 48.242 8.31111C48.5065 8.61333 48.752 8.91555 49.0165 9.21778C49.9043 10.2189 50.7165 11.1633 51.2643 12.4478L51.6798 13.4678L50.8865 12.75C46.0509 8.34889 37.9854 6.36555 31.7143 8.04666C28.5598 8.87778 24.4609 10.9744 22.5909 16.1878L23.1765 16.5844C25.8776 18.4167 26.6331 18.9267 27.4454 19.9844L27.672 20.1922C28.7676 21.08 29.9576 22.0244 30.902 23.46C33.9243 25.0844 35.2276 27.4833 35.2654 31.4122C48.3554 33.7733 50.0743 40.63 50.4709 43.5578C52.8132 41.5933 53.8331 40.1767 55.212 37.74L55.8543 36.4556Z" fill="#28282E"/>
<path d="M29.4479 33.7922C26.5201 31.9411 25.3301 31.0344 20.8723 30.4111C17.7934 30.0711 14.1101 28.4467 17.7367 25.9911C20.4945 23.8944 23.0634 22.2322 21.7601 17.1889C26.2179 20.9856 26.6901 25.0278 26.6145 26.1611C28.4845 29.1833 29.1456 30.9022 29.4479 33.7922Z" fill="#C78E5C"/>
<path d="M21.4387 24.2344C21.6276 27.54 22.3265 28.0878 25.4242 30.6944C24.0454 30.09 23.762 30.09 21.1553 29.7122C19.3042 29.58 17.0942 28.7678 17.0942 27.7478C17.3776 26.5767 19.5687 25.7833 21.4387 24.2344Z" fill="#B27A50"/>
<path d="M20.1544 17.8311C19.7199 16.0178 13.5433 12.3722 9.3877 17.34C12.7688 15.2244 17.6044 15.6022 17.8688 20.0789C18.6621 22.5722 20.8721 19.8522 20.1544 17.8311Z" fill="#28282E"/>
<path d="M19.9655 17.3967C19.5311 15.5833 12.4855 11.7867 9.33105 17.3967C12.1644 13.9589 18.3411 15.3944 18.6433 19.8711C19.0777 21.9111 20.7022 19.04 19.9655 17.34" fill="#5D3D21"/>
<path d="M43.4065 22.9689C44.8798 20.5889 48.0342 15.7533 42.2354 9.86C53.8898 13.8456 64.9398 27.6156 58.8953 38.2878C58.7253 36.9656 59.9531 33.3767 56.5909 30.8833C56.8176 36.2667 55.042 38.2878 52.4165 41.6311C55.9676 32.2433 49.942 28.2389 43.4065 22.9689Z" fill="#BD8658"/>
<path d="M55.4768 2.26667C52.9268 2.26667 51.3024 8.48111 50.9246 11.8811C50.6224 10.9744 49.4135 9.69 48.1479 8.29222C48.6579 6.30889 49.0168 2.34222 55.4768 2.26667Z" fill="#905D31"/>
<path d="M55.8169 2.34222C59.3869 2.58778 63.2024 4.70334 64.2791 6.74334C62.9002 5.81778 61.6725 5.66667 59.5947 5.59111C71.9858 13.7322 60.8791 21.42 55.6469 16.15C55.5902 16.0933 61.408 13.3544 55.8169 2.34222Z" fill="#BC8557"/>
<path d="M22.5156 16.15C25.0467 17.5856 26.2178 18.7944 27.2001 20.5889C28.6167 21.8544 29.3345 22.4211 30.279 23.6678C33.0178 24.99 35.2467 26.9733 35.2467 31.3744C42.3301 32.6211 47.8267 35.36 50.0745 41.82C51.0567 35.6244 46.4478 31.7522 38.1367 29.6178C37.0223 27.8611 36.3234 25.3678 37.2678 23.4033C37.6456 22.5156 38.1178 20.9856 41.7634 21.08C42.6134 21.0989 42.9534 20.4944 43.1423 20.1544C45.5223 15.7911 43.539 9.25556 33.169 13.5056C31.5634 12.7122 30.7701 11.1444 31.6956 8.02778C28.0878 9.04778 24.329 11.1633 22.5156 16.15Z" fill="#905D31"/>
<path d="M28.4463 16.7922C32.1107 17.7178 33.1685 20.9856 37.7018 18.2278L28.4463 16.7922Z" fill="#281A11"/>
<path d="M34.5287 19.4367C33.3198 19.4367 32.3754 18.8511 31.3554 18.2467C30.4865 17.7367 29.5798 17.17 28.4087 16.9056L28.4465 16.66C29.6742 16.9622 30.6187 17.5478 31.4687 18.0578C33.2442 19.1344 34.642 19.9656 37.6265 18.1333L37.7398 18.36C36.4554 19.1344 35.4165 19.4367 34.5287 19.4367Z" fill="#28282E"/>
<path d="M28.4468 16.7922C36.1346 14.3556 37.1357 17.51 40.8946 19.8333L28.4468 16.7922Z" fill="#281A11"/>
<path d="M40.8 19.9278C39.9878 19.4367 39.2889 18.8889 38.6089 18.3789C36.2478 16.5278 34.3778 15.0544 28.4467 16.9433L28.3711 16.6978C34.4344 14.7522 36.4555 16.3578 38.7411 18.1522C39.4022 18.6622 40.1011 19.2289 40.9133 19.7011L40.8 19.9278Z" fill="#281A11"/>
<path d="M32.3001 16.3389C30.6946 16.3389 28.9379 16.6411 28.8057 16.7167C31.6012 15.6211 33.169 12.9767 38.3257 12.6178C32.6212 13.9211 32.5457 15.9611 32.3001 16.3389Z" fill="#281A11"/>
<path d="M28.8435 16.8111L28.749 16.5844C28.749 16.5844 28.7679 16.5656 28.7868 16.5656C29.6935 16.1878 30.4868 15.6589 31.3368 15.1111C32.999 13.9967 34.869 12.7311 38.3257 12.4667L38.3446 12.7122C33.4335 13.8267 32.7724 15.5267 32.5268 16.15C32.489 16.2444 32.4512 16.3578 32.4135 16.3956L32.3946 16.4333H32.3001C30.789 16.4333 29.1457 16.6789 28.8624 16.7733L28.8435 16.8111ZM36.4179 12.9956C34.1701 13.4678 32.7535 14.4311 31.4501 15.3378C30.8646 15.7344 30.3357 16.0744 29.7501 16.4144C30.4301 16.32 31.3179 16.2256 32.2246 16.2256C32.2435 16.1878 32.2624 16.1311 32.3001 16.0933C32.5079 15.4889 33.0557 14.11 36.4179 12.9956Z" fill="#281A11"/>
<path d="M35.5054 17.9726C35.6209 17.4961 35.2461 16.9962 34.6682 16.8561C34.0904 16.7161 33.5283 16.9887 33.4128 17.4652C33.2973 17.9417 33.6721 18.4415 34.2499 18.5816C34.8278 18.7217 35.3899 18.449 35.5054 17.9726Z" fill="white"/>
<path d="M34.7811 17.8382C34.8898 17.3708 34.4838 16.8769 33.8741 16.7351C33.2645 16.5932 32.6821 16.8571 32.5734 17.3245C32.4646 17.7919 32.8707 18.2858 33.4803 18.4277C34.09 18.5695 34.6723 18.3056 34.7811 17.8382Z" fill="#28282E"/>
<path d="M26.331 9.27444C24.7255 10.5967 23.0444 13.6756 22.1566 15.9044C16.8866 14.5444 21.2688 8.99111 11.8433 12.1644C16.981 6.55444 25.5755 6.38444 26.331 9.27444Z" fill="#AA7341"/>
<path d="M22.232 16.0744L22.1376 16.0556C20.0031 15.5078 19.4364 14.2989 18.8887 13.2411C18.3787 12.2022 17.982 11.39 16.282 11.39C15.2242 11.39 13.8076 11.7111 11.8998 12.3722L11.4653 12.5044L11.7676 12.1644C14.9976 8.61333 19.4176 7.34778 22.2509 7.34778C24.5176 7.34778 26.142 8.08444 26.4631 9.31222L26.482 9.38778L26.3876 9.40667C24.782 10.71 23.1198 13.7511 22.232 15.9989V16.0744ZM16.2631 11.1067C18.1142 11.1067 18.5676 12.0889 19.0964 13.1278C19.5876 14.1289 20.1542 15.2622 22.062 15.7911C22.9687 13.5811 24.5742 10.5967 26.1798 9.25556C25.8587 8.21667 24.3287 7.55556 22.2131 7.55556C19.5309 7.55556 15.3753 8.68889 12.2398 11.9189C13.9964 11.3711 15.2998 11.1067 16.2631 11.1067Z" fill="#281A11"/>
</g>
<path d="M152.462 2H78.5381C77.1364 2 76 3.16406 76 4.5998V22.4002C76 23.8359 77.1364 25 78.5381 25H80.9975C80.9975 29.0399 80.9975 32 80.9975 32C82.9965 32 87.9153 25 92.9915 25H152.462C153.864 25 155 23.8359 155 22.4002V4.5998C155 3.16385 153.864 2 152.462 2Z" fill="#28282E"/>
<path d="M85.84 6.12H88.94L89.74 15.26L90.44 6.12H93.6L91.7 21H87.96L87.32 13.12L86.68 21H82.86L80.98 6.12H84.36L85.04 15.34L85.84 6.12ZM98.0164 21L97.7764 18.82H96.2564L96.0364 21H93.1764L95.0764 6.12H99.1364L101.216 21H98.0164ZM97.0164 11.36L96.5564 15.88H97.4764L97.0164 11.36ZM106.786 15.26H105.206V21H101.926V6.12H106.686C107.659 6.12 108.366 6.36667 108.806 6.86C109.259 7.35333 109.486 8.10667 109.486 9.12V12.2C109.486 13.1733 109.246 13.9267 108.766 14.46C108.299 14.9933 107.639 15.26 106.786 15.26ZM105.206 8.72V12.52H105.606C105.832 12.52 105.986 12.4667 106.066 12.36C106.146 12.24 106.186 12.0533 106.186 11.8V9.46C106.186 9.20667 106.146 9.02 106.066 8.9C105.986 8.78 105.832 8.72 105.606 8.72H105.206ZM111.55 17.78V21H108.71V17.78H111.55Z" fill="#50B65A"/>
<path d="M117.049 17.48V14.5H120.309V17.58C120.309 18.62 120.022 19.4933 119.449 20.2C118.889 20.8933 118.002 21.24 116.789 21.24H116.209C113.769 21.24 112.549 19.9267 112.549 17.3V9.74C112.549 8.58 112.836 7.65333 113.409 6.96C113.996 6.26667 114.922 5.92 116.189 5.92H116.789C119.136 5.92 120.309 7.08 120.309 9.4V11.84H117.049V9.54C117.049 9.04667 116.869 8.8 116.509 8.8C116.309 8.8 116.169 8.85333 116.089 8.96C116.009 9.06667 115.969 9.26 115.969 9.54V17.48C115.969 18 116.156 18.26 116.529 18.26C116.876 18.26 117.049 18 117.049 17.48ZM121.348 6.12H124.648V17.84H127.348V21H121.348V6.12ZM131.591 6.12V21H128.291V6.12H131.591ZM137.175 17.48V14.5H140.435V17.58C140.435 18.62 140.148 19.4933 139.575 20.2C139.015 20.8933 138.128 21.24 136.915 21.24H136.335C133.895 21.24 132.675 19.9267 132.675 17.3V9.74C132.675 8.58 132.961 7.65333 133.535 6.96C134.121 6.26667 135.048 5.92 136.315 5.92H136.915C139.261 5.92 140.435 7.08 140.435 9.4V11.84H137.175V9.54C137.175 9.04667 136.995 8.8 136.635 8.8C136.435 8.8 136.295 8.85333 136.215 8.96C136.135 9.06667 136.095 9.26 136.095 9.54V17.48C136.095 18 136.281 18.26 136.655 18.26C137.001 18.26 137.175 18 137.175 17.48ZM144.774 15.06V21H141.474V6.12H144.774V11.38L146.314 6.12H149.594L147.574 12.76L149.714 21H146.254L144.774 15.06Z" fill="white"/>
</g>
<defs>
<clipPath id="clip0_109_44">
<rect width="155" height="68" fill="white"/>
</clipPath>
<clipPath id="clip1_109_44">
<rect width="68" height="68" fill="white"/>
</clipPath>
</defs>
</svg>
